<?xml version="1.0" standalone="no"?><!DOCTYPE svg PUBLIC "-//W3C//DTD SVG 1.1//EN" "http://www.w3.org/Graphics/SVG/1.1/DTD/svg11.dtd"><svg t="1667011656312" class="icon" viewBox="0 0 1024 1024" version="1.1" xmlns="http://www.w3.org/2000/svg" p-id="1738" width="32" height="32" xmlns:xlink="http://www.w3.org/1999/xlink"><path d="M852 147c33.137 0 60 26.863 60 60v452c0 33.137-26.863 60-60 60H459.708L299.654 869.492c-12.473 11.728-32.092 11.124-43.82-1.35a31 31 0 0 1-8.415-21.414L248.16 719H172c-33.137 0-60-26.863-60-60V207c0-33.137 26.863-60 60-60h680z m0.344 40H172c-10.93 0-19.813 8.769-20 19.656V659c0 10.93 8.769 19.813 19.656 19.997L172 679h116.393l-0.853 146.977L443.856 679H852c10.93 0 19.813-8.769 20-19.656V207c0-10.93-8.769-19.813-19.656-20zM302 383c27.614 0 50 22.386 50 50s-22.386 50-50 50-50-22.386-50-50 22.386-50 50-50z m210 0c27.614 0 50 22.386 50 50s-22.386 50-50 50-50-22.386-50-50 22.386-50 50-50z m210 0c27.614 0 50 22.386 50 50s-22.386 50-50 50-50-22.386-50-50 22.386-50 50-50z" fill="#fff" p-id="1739"></path></svg>