<?xml version="1.0" standalone="no"?><!DOCTYPE svg PUBLIC "-//W3C//DTD SVG 1.1//EN" "http://www.w3.org/Graphics/SVG/1.1/DTD/svg11.dtd"><svg t="1667011984418" class="icon" viewBox="0 0 1024 1024" version="1.1" xmlns="http://www.w3.org/2000/svg" p-id="1744" xmlns:xlink="http://www.w3.org/1999/xlink" width="48" height="48"><path d="M512 374.848l68.096-62.464C676.48 224.064 832 292.48 832 423.232c0 39.872-15.872 78.08-44.032 106.24L512 805.568 236.032 529.536A150.336 150.336 0 0 1 192 423.232C192 292.416 347.52 224 443.904 312.32L512 374.848z m-24.832-109.632C349.696 139.2 128 236.8 128 423.232c0 56.832 22.592 111.36 62.72 151.552l311.936 311.872c5.12 5.12 13.504 5.12 18.688 0l311.872-311.872c40.192-40.192 62.784-94.72 62.784-151.552 0-186.496-221.696-284.032-359.168-158.016L512 288l-24.832-22.784z" fill="#fff" fill-opacity=".85" p-id="1745"></path></svg>